<?xml version="1.0" encoding="UTF-8"?>
<svg id="Layer_2" data-name="Layer 2" xmlns="http://www.w3.org/2000/svg" viewBox="0 0 637.69 72.2">
  <defs>
    <style>
      .cls-1 {
        fill: #00a72f;
      }

      .cls-1, .cls-2 {
        stroke-width: 0px;
      }

      .cls-2 {
        fill: #d7d7d7;
      }
    </style>
  </defs>
  <g id="Layer_1-2" data-name="Layer 1">
    <g>
      <path class="cls-1" d="m39,38.7l.6-20.2h-.9l-13.5,35.9L11.7,18.5h-.9l.6,20.2v32.3H0V1.2h15.6l9.7,25.7h.7L35.8,1.2h14.6v69.8h-11.4v-32.3Z"/>
      <path class="cls-1" d="m68.5,71V1.2h44.1v10.8h-31v18.2h29.9v10.8h-29.9v19.2h31v10.8h-44.1Z"/>
      <path class="cls-1" d="m132.5,1.2h21.7c9.07,0,15.82,3,20.25,9,4.43,6,6.65,14.63,6.65,25.9s-2.22,19.98-6.65,25.95c-4.43,5.97-11.18,8.95-20.25,8.95h-21.7V1.2Zm20.8,59.2c4.8,0,8.35-1.56,10.65-4.68s3.45-7.67,3.45-13.65v-12.05c0-5.91-1.15-10.42-3.45-13.54s-5.85-4.68-10.65-4.68h-7.9v48.6h7.9Z"/>
      <path class="cls-2" d="m222,72.2c-9.13,0-15.88-3.13-20.25-9.4-4.37-6.27-6.55-15.17-6.55-26.7s2.18-20.35,6.55-26.65c4.37-6.3,11.12-9.45,20.25-9.45,3.47,0,6.52.46,9.15,1.39,2.63.92,4.92,2.2,6.85,3.81,1.93,1.62,3.53,3.57,4.8,5.86,1.27,2.29,2.27,4.8,3,7.54l-12,3.4c-.47-1.6-1-3.1-1.6-4.5-.6-1.4-1.35-2.62-2.25-3.65-.9-1.03-2.02-1.83-3.35-2.4-1.33-.57-2.93-.85-4.8-.85-4.53,0-7.78,1.74-9.75,5.22-1.97,3.48-2.95,8.23-2.95,14.26v12.05c0,6.02.98,10.78,2.95,14.26,1.97,3.48,5.22,5.22,9.75,5.22,1.87,0,3.47-.28,4.8-.85,1.33-.57,2.45-1.37,3.35-2.4.9-1.03,1.65-2.25,2.25-3.65s1.13-2.9,1.6-4.5l12,3.4c-.73,2.73-1.73,5.25-3,7.54-1.27,2.29-2.87,4.25-4.8,5.86-1.93,1.62-4.22,2.89-6.85,3.81-2.63.92-5.68,1.39-9.15,1.39Z"/>
      <path class="cls-2" d="m285.2,72.2c-4.53,0-8.47-.82-11.8-2.45-3.33-1.63-6.08-3.98-8.25-7.05-2.17-3.07-3.77-6.83-4.8-11.3-1.03-4.47-1.55-9.57-1.55-15.3s.52-10.75,1.55-15.25c1.03-4.5,2.63-8.28,4.8-11.35,2.17-3.07,4.92-5.42,8.25-7.05,3.33-1.63,7.27-2.45,11.8-2.45,9.07,0,15.73,3.17,20,9.5,4.27,6.33,6.4,15.2,6.4,26.6s-2.13,20.27-6.4,26.6c-4.27,6.33-10.93,9.5-20,9.5Zm0-10.6c2.33,0,4.3-.45,5.9-1.36,1.6-.9,2.88-2.19,3.85-3.87.97-1.67,1.67-3.73,2.1-6.17.43-2.44.65-5.17.65-8.18v-11.95c0-6.02-.92-10.78-2.75-14.26-1.83-3.48-5.08-5.22-9.75-5.22s-7.92,1.74-9.75,5.22c-1.83,3.48-2.75,8.23-2.75,14.26v12.05c0,6.02.92,10.78,2.75,14.26,1.83,3.48,5.08,5.22,9.75,5.22Z"/>
      <path class="cls-2" d="m339.1,20.9h-1v50.1h-11.2V1.2h16.1l18.3,50.1h1V1.2h11.2v69.8h-16.1l-18.3-50.1Z"/>
      <path class="cls-2" d="m404.1,20.9h-1v50.1h-11.2V1.2h16.1l18.3,50.1h1V1.2h11.2v69.8h-16.1l-18.3-50.1Z"/>
      <path class="cls-2" d="m458.49,71V1.2h44.1v10.8h-31v18.2h29.9v10.8h-29.9v19.2h31v10.8h-44.1Z"/>
      <path class="cls-2" d="m546.99,72.2c-9.13,0-15.88-3.13-20.25-9.4-4.37-6.27-6.55-15.17-6.55-26.7s2.18-20.35,6.55-26.65c4.37-6.3,11.12-9.45,20.25-9.45,3.47,0,6.52.46,9.15,1.39,2.63.92,4.92,2.2,6.85,3.81,1.93,1.62,3.53,3.57,4.8,5.86,1.27,2.29,2.27,4.8,3,7.54l-12,3.4c-.47-1.6-1-3.1-1.6-4.5-.6-1.4-1.35-2.62-2.25-3.65-.9-1.03-2.02-1.83-3.35-2.4-1.33-.57-2.93-.85-4.8-.85-4.53,0-7.78,1.74-9.75,5.22-1.97,3.48-2.95,8.23-2.95,14.26v12.05c0,6.02.98,10.78,2.95,14.26,1.97,3.48,5.22,5.22,9.75,5.22,1.87,0,3.47-.28,4.8-.85,1.33-.57,2.45-1.37,3.35-2.4.9-1.03,1.65-2.25,2.25-3.65s1.13-2.9,1.6-4.5l12,3.4c-.73,2.73-1.73,5.25-3,7.54-1.27,2.29-2.87,4.25-4.8,5.86-1.93,1.62-4.22,2.89-6.85,3.81-2.63.92-5.68,1.39-9.15,1.39Z"/>
      <path class="cls-2" d="m616.69,12v59h-13V12h-21V1.2h55v10.8h-21Z"/>
    </g>
  </g>
</svg>