<?xml version="1.0" encoding="UTF-8"?>
<svg id="Layer_2" data-name="Layer 2" xmlns="http://www.w3.org/2000/svg" viewBox="0 0 79.45 79.46">
  <defs>
    <style>
      .cls-1 {
        fill: #585858;
        stroke-width: 0px;
      }
    </style>
  </defs>
  <g id="Layer_1-2" data-name="Layer 1">
    <path class="cls-1" d="M61.41,52.94c-.2-.2-.51-.2-.71,0-.39.39-.9.59-1.41.59s-1.03-.2-1.42-.59l-.6-.61c10.16-12.63,9.38-31.2-2.34-42.92C41.84-3.68,20.19-3.12,7.83,11.1c-10.24,11.77-10.47,29.54-.51,41.56,11.49,13.87,31.59,15.4,45,4.62l.6.61c.79.78.79,2.04,0,2.82-.1.1-.14.23-.14.36s.04.26.14.35l18.05,18.04,8.48-8.48-18.04-18.04ZM44.91,47.85c-7.34,6.01-18.14,6.01-25.49,0-9.92-8.12-9.92-23.22,0-31.34,7.35-6.01,18.15-6.01,25.49,0,9.93,8.12,9.93,23.22,0,31.34Z"/>
  </g>
</svg>